<svg xmlns="http://www.w3.org/2000/svg" viewBox="0 0 64 64">
  <rect x="8" y="8" width="48" height="48" rx="14" fill="#198CFF"/>
  <path d="M22 24h20a4 4 0 0 1 4 4v10a4 4 0 0 1-4 4H22a4 4 0 0 1-4-4V28a4 4 0 0 1 4-4Z" fill="#FFFFFF"/>
  <path d="M26 21h12a3 3 0 0 1 3 3v2H23v-2a3 3 0 0 1 3-3Z" fill="#FFFFFF"/>
  <path d="M43 23l-7 7" stroke="#198CFF" stroke-width="4" stroke-linecap="round"/>
  <path d="M31 28l5 5" stroke="#198CFF" stroke-width="4" stroke-linecap="round"/>
  <circle cx="25" cy="33" r="2.5" fill="#198CFF"/>
</svg>
